<?xml version="1.0"?>
<svg xmlns="http://www.w3.org/2000/svg" viewBox="0 0 512 512" width="512" height="512"><g id="Filled_outline" data-name="Filled outline"><circle cx="256" cy="256" r="232" style="fill:#5f4bbc"/><circle cx="256" cy="256" r="192" style="fill:#46349e"/><path d="M232,224v8H168v-8a93.7,93.7,0,0,0-69.57-90.55A67.938,67.938,0,0,1,48,67.81,47.849,47.849,0,0,0,44.36,49.5,47.841,47.841,0,0,0,33.99,33.99L24,24l34.45,9.84A29.734,29.734,0,0,1,80,62.42a28.434,28.434,0,0,0,23.79,28.04c.55.09,1.1.16,1.65.22l7.22.76q6.03.63,11.89,1.8a131.25,131.25,0,0,1,16.05,4.2,133.4,133.4,0,0,1,68.86,52.4,130.161,130.161,0,0,1,8.62,14.83,132.812,132.812,0,0,1,7.8,19.33,131.152,131.152,0,0,1,3.95,16A132.992,132.992,0,0,1,232,224Z" style="fill:#c378cb"/><path d="M488,24l-9.99,9.99A47.783,47.783,0,0,0,464,67.81a67.938,67.938,0,0,1-50.43,65.64A93.7,93.7,0,0,0,344,224v8H280v-8a132.992,132.992,0,0,1,2.17-24,131.152,131.152,0,0,1,3.95-16,132.556,132.556,0,0,1,7.98-19.69,133.736,133.736,0,0,1,22.27-31.8,132.939,132.939,0,0,1,39.03-28.59,132.256,132.256,0,0,1,32.05-10.68q5.85-1.17,11.89-1.8l7.22-.76c.55-.06,1.1-.13,1.65-.22A28.434,28.434,0,0,0,432,62.42a29.734,29.734,0,0,1,21.55-28.58Z" style="fill:#c378cb"/><path d="M304.422,106.131c-5.1,11.084-10.374,13.908-21.594,21.022-10.021,6.353-22.061,9.814-34.04,8.61-17.057-1.714-33.106-12.388-38.337-28.682-6.415-19.979-.229-45.332,18.482-55.24C256.043,37.486,263.823,24,263.823,24s1.218,22.866-5.243,30.763c-5.408,6.61-13.417,18.614.4,24.63,9.724,4.232,14.812-5.592,17.957-12.931,3.946-9.207,6.084-22.149,17.032-25.774,8.529-2.825,18.045-.927,26.811-2.954,0,0,11.3-2.49,14.812-13.734a40.32,40.32,0,0,1-1.948,19.182c-4.2,11.5-18.994,11.723-23.476,23.21-2.627,6.733-.7,14.348-1.241,21.353A53.734,53.734,0,0,1,304.422,106.131Z" style="fill:#c04a42"/><path d="M344,232l96,55.735s-16,30.789-56,23-40-38.928-40-38.928Z" style="fill:#b267ba"/><path d="M168,232,72,287.735s16,30.789,56,23,40-38.928,40-38.928Z" style="fill:#b267ba"/><path d="M168,232V352.62a32,32,0,0,0,12.01,24.988L202,395.2a16,16,0,0,1,6,12.494V440a48,48,0,0,0,48,48h0a48,48,0,0,0,48-48V407.69a16,16,0,0,1,6-12.494l21.985-17.588A32,32,0,0,0,344,352.62V232Z" style="fill:#b267ba"/><path d="M224,331.371a30.084,30.084,0,0,1-6.112,12.158c-9.521,11.3-24.959,11.3-34.479,0-9.341-11.078-7.234-16.03-7.144-39.529Z" style="fill:#c04a42"/><path d="M328.591,343.529c-9.52,11.3-24.958,11.3-34.479,0A30.084,30.084,0,0,1,288,331.371L335.735,304C335.825,327.5,337.932,332.451,328.591,343.529Z" style="fill:#c04a42"/><path d="M296,152V120h0c-13.255,0-24,17.889-24,17.889A28.944,28.944,0,0,0,256,112h0a28.944,28.944,0,0,0-16,25.889S229.255,120,216,120h0v32l16,24v56h48V176Z" style="fill:#9d52a5"/><path d="M256,320a8,8,0,0,1-6.946-4.031L237.644,296H216a8,8,0,0,1-3.249-15.311l12.874-5.721-8.571-15a8,8,0,0,1,10.195-11.28L256,261.468l28.751-12.779a8,8,0,0,1,10.2,11.28l-8.571,15,12.874,5.721A8,8,0,0,1,296,296H274.356l-11.41,19.969A8,8,0,0,1,256,320Z" style="fill:#9d52a5"/><path d="M143.06,62.527l9.674,16.757,13.858-8L157.16,54.948a222.835,222.835,0,0,1,75.428-21.74l-1.652-15.914A239.1,239.1,0,0,0,109.975,65.523l9.742,12.691A224.054,224.054,0,0,1,143.06,62.527Z"/><path d="M462.546,133.709l-13.76,8.165A223.6,223.6,0,0,1,479.854,248h-24.02a199.452,199.452,0,0,0-28.946-95.956l-13.66,8.33A183.6,183.6,0,0,1,440,256a186.279,186.279,0,0,1-1.274,21.745L352,227.394V224a85.82,85.82,0,0,1,63.631-82.822A76.028,76.028,0,0,0,472,67.807a39.56,39.56,0,0,1,11.661-28.155l10-10A8,8,0,0,0,485.8,16.308l-34.449,9.841A37.879,37.879,0,0,0,424,62.416a20.375,20.375,0,0,1-18.282,20.306l-7.215.76a141.073,141.073,0,0,0-90.218,45.982q-2.205,2.45-4.285,4.987V121.393a44.142,44.142,0,0,0,7.688-11.918,61.53,61.53,0,0,0,5.218-21.11,54.151,54.151,0,0,0,.076-6.012A183.193,183.193,0,0,1,335.7,90.111L342.645,75.7a199.151,199.151,0,0,0-23.053-9.367,34.21,34.21,0,0,1,6.52-4.667c5.336-3.265,11.978-7.329,15.056-15.745a45.039,45.039,0,0,0,1.812-6.471c.011-.05.02-.1.029-.148a47.732,47.732,0,0,0,.5-16.5,8,8,0,0,0-15.544-1.191,11.867,11.867,0,0,1-5.081,6.523c-.07.041-.14.083-.21.127-8.833,5.533-21.441,1.6-31.217,4.835-13.7,4.531-16.839,18.492-21.869,30.212-1.01,2.354-3.513,9.718-7.09,8.908-3.013-.683-3.609-2.479-2.515-5.057a32.12,32.12,0,0,1,4.788-7.333c7.685-9.391,7.36-29.58,7.049-35.892a8,8,0,0,0-14.381-4.758,8.7,8.7,0,0,0-.549.822c-.687,1.075-8.284,12.381-31.711,24.776A44.71,44.71,0,0,0,207.6,61.919a198.117,198.117,0,0,0-36.467,12.935l6.8,14.481a182.438,182.438,0,0,1,23.017-8.955,61.331,61.331,0,0,0,1.878,29.14A44.779,44.779,0,0,0,208,120.337v14.114q-2.081-2.537-4.285-4.987A141.073,141.073,0,0,0,113.5,83.482l-7.215-.76A20.375,20.375,0,0,1,88,62.416,37.879,37.879,0,0,0,60.645,26.149L26.2,16.308a8,8,0,0,0-7.853,13.349l9.994,9.994A39.561,39.561,0,0,1,40,67.807a76.029,76.029,0,0,0,56.37,73.371A85.82,85.82,0,0,1,160,224v3.394L73.3,277.729A185.235,185.235,0,0,1,72,256a183.329,183.329,0,0,1,28.9-99.035l-13.474-8.626A199.138,199.138,0,0,0,56.164,248H32.145A223.459,223.459,0,0,1,64.228,140.182L50.54,131.9A240.1,240.1,0,0,0,198.513,489.069l3.82-15.537a221.557,221.557,0,0,1-45.153-16.515L169.2,436.2c4.791,2.314,9.676,4.457,14.611,6.37l5.781-14.919A184.385,184.385,0,0,1,79.484,308c.245.189.477.379.728.567a57.977,57.977,0,0,0,35.263,11.429,73.494,73.494,0,0,0,14.053-1.4c14.045-2.734,23.764-8.158,30.472-14.092V352.62a39.8,39.8,0,0,0,15.013,31.235L197,401.444a7.957,7.957,0,0,1,3,6.246V440a56,56,0,0,0,112,0V407.69a7.959,7.959,0,0,1,3-6.247l21.985-17.588A39.806,39.806,0,0,0,352,352.62V304.5c6.708,5.934,16.427,11.358,30.472,14.092a73.421,73.421,0,0,0,14.053,1.4,57.979,57.979,0,0,0,35.263-11.429c.271-.2.523-.408.786-.612A184.447,184.447,0,0,1,322.85,427.488l5.816,14.906A200.587,200.587,0,0,0,355.1,429.786l11.986,20.76a222.2,222.2,0,0,1-60.794,23.786l3.578,15.6a238.321,238.321,0,0,0,72.3-29.735,240.12,240.12,0,0,0,80.375-326.483ZM155.063,428.684l-11.979,20.749A225.509,225.509,0,0,1,80.492,395.2,221.4,221.4,0,0,1,32.148,264H56.165A199.636,199.636,0,0,0,155.063,428.684ZM320.134,326.411c-.162,3.467-.858,4.444-2.948,6.846h0a7.352,7.352,0,0,1-5.5,2.742,7.116,7.116,0,0,1-4.94-2.151Zm4.542-191.106,28.33,9.3,4.988-15.2-19.151-6.284a124.705,124.705,0,0,1,22.142-13.036l10.869,13.043,12.292-10.244-7.319-8.781a126.18,126.18,0,0,1,18.221-4.051l13.562,12.366,10.78-11.824-4.056-3.7A36.329,36.329,0,0,0,440,62.416a21.81,21.81,0,0,1,15.75-20.882l8.1-2.314A55.465,55.465,0,0,0,456,67.807a60.008,60.008,0,0,1-44.493,57.911A101.842,101.842,0,0,0,336,224H288a126.541,126.541,0,0,1,2.29-24H325V184H294.492a124.567,124.567,0,0,1,7.678-18.053l31.07,4.953,2.52-15.8-24.541-3.913A125.167,125.167,0,0,1,324.676,135.305ZM220.155,72.348a29.5,29.5,0,0,1,12.516-13.437,144.15,144.15,0,0,0,21.623-13.839,12.522,12.522,0,0,1-1.9,4.612A46.891,46.891,0,0,0,245.26,60.9c-4.712,11.063-.677,20.961,10.524,25.829a17.625,17.625,0,0,0,13.855.515c7.526-2.982,11.631-10.582,14.656-17.632.128-.3.252-.6.377-.9l.18-.434.046-.113c.666-1.668,1.284-3.392,1.881-5.06,2.932-8.19,5.048-13.275,9.71-14.817,3.538-1.174,7.784-1.289,12.279-1.411a74.07,74.07,0,0,0,12.454-1.056c-1.013.691-2.166,1.406-3.46,2.2-8.507,5.207-14.234,12.792-16.105,22.64-2.1,11.073.413,21.447-4.5,32.132-2.365,5.14-4.506,7.729-7.346,10.056a35.023,35.023,0,0,0-13.927,8.015,36.825,36.825,0,0,0-16.3-16.012,8,8,0,0,0-7.156,0,36.825,36.825,0,0,0-16.3,16.012,35.088,35.088,0,0,0-13.851-7.994,29.12,29.12,0,0,1-4.2-8.229A44.945,44.945,0,0,1,220.155,72.348Zm18.5,99.214L224,149.578v-18a44.126,44.126,0,0,1,9.142,10.433A8,8,0,0,0,248,137.889a20.811,20.811,0,0,1,8-16.475,20.811,20.811,0,0,1,8,16.475,8,8,0,0,0,14.858,4.119A43.9,43.9,0,0,1,288,131.59v17.988l-14.656,21.984A8,8,0,0,0,272,176v48H240V176A8,8,0,0,0,238.656,171.562ZM100.493,125.718h0A60.008,60.008,0,0,1,56,67.807,55.465,55.465,0,0,0,48.15,39.22l8.1,2.314A21.81,21.81,0,0,1,72,62.416,36.331,36.331,0,0,0,96.666,96.891l-4.056,3.7,10.78,11.824,13.562-12.366a126.313,126.313,0,0,1,18.221,4.051l-7.319,8.781,12.292,10.244,10.869-13.043a124.705,124.705,0,0,1,22.142,13.036L154.006,129.4l4.988,15.2,28.33-9.3a125.167,125.167,0,0,1,13.457,15.882L176.24,155.1l2.52,15.8,31.07-4.953A124.567,124.567,0,0,1,217.508,184H187v16h34.71A126.541,126.541,0,0,1,224,224H176A101.842,101.842,0,0,0,100.493,125.718ZM205.255,333.849a7.119,7.119,0,0,1-4.94,2.151,7.353,7.353,0,0,1-5.5-2.743c-2.09-2.4-2.786-3.379-2.948-6.846Zm-49.569-48.835c-5.511,9.158-15.34,15.171-29.214,17.872-22.873,4.453-36.4-5.592-42.818-12.667L160,245.9V271.76A29.843,29.843,0,0,1,155.686,285.014ZM256,480a40.051,40.051,0,0,1-36.65-24h73.3A40.051,40.051,0,0,1,256,480Zm70.992-108.639-21.984,17.588A23.879,23.879,0,0,0,296,407.69V440H216V407.69a23.881,23.881,0,0,0-9.007-18.741l-21.985-17.588A23.882,23.882,0,0,1,176,352.62V328.655c.454,5.219,2.012,9.669,6.745,15.106a22.854,22.854,0,0,0,35.144-.005c.557-.641,1.076-1.319,1.571-2.016l9.724,5.4-5.1,35.727,15.84,2.262,8-56-15.84-2.262-.474,3.316L176,299.293V240H336v59.293l-55.606,30.892-.474-3.316-15.84,2.262,8,56,15.84-2.262-5.1-35.727,9.724-5.4c.5.7,1.016,1.377,1.575,2.021A23.1,23.1,0,0,0,311.684,352h0a23.1,23.1,0,0,0,17.569-8.238c4.734-5.438,6.292-9.888,6.746-15.107V352.62A23.882,23.882,0,0,1,326.992,371.361Zm58.536-68.475C352.86,296.527,352.02,272.744,352,271.811V245.9l76.343,44.322C421.914,297.306,408.389,307.336,385.528,302.886ZM450.8,366.674A225.576,225.576,0,0,1,380.681,442.1l-12.007-20.8A200.148,200.148,0,0,0,455.84,264h24.013A223.9,223.9,0,0,1,450.8,366.674Z"/><path d="M362.852,68.784l13.857,8,3.972-6.881c4.156,2.79,8.24,5.71,12.186,8.76L402.65,66a240,240,0,0,0-48.612-29.12l-6.539,14.6c6.661,2.984,13.222,6.324,19.587,9.965Z"/><path d="M232,400v16a8.009,8.009,0,0,1,8,8h16A24.027,24.027,0,0,0,232,400Z"/><path d="M256,424h16a8.009,8.009,0,0,1,8-8V400A24.027,24.027,0,0,0,256,424Z"/><path d="M256,320a8,8,0,0,0,6.946-4.031L274.356,296H296a8,8,0,0,0,3.249-15.311l-12.874-5.721,8.571-15a8,8,0,0,0-10.2-11.28L256,261.468l-28.751-12.779a8,8,0,0,0-10.195,11.28l8.571,15-12.874,5.721A8,8,0,0,0,216,296h21.644l11.41,19.969A8,8,0,0,0,256,320Zm0-41.023L258.3,280H253.7Z"/><rect x="112" y="192" width="16" height="16"/><rect x="384" y="192" width="16" height="16"/><rect x="120" y="344" width="16" height="16"/><rect x="376" y="336" width="16" height="16"/></g></svg>
