<svg height="512" viewBox="0 0 30 56" width="512" xmlns="http://www.w3.org/2000/svg"><g id="Page-1" fill="none" fill-rule="evenodd"><g id="044---Satan-Challice" fill="rgb(0,0,0)" fill-rule="nonzero" transform="translate(-1)"><path id="Shape" d="m16 34c-.6685927-.0036173-1.3364009-.046357-2-.128v3.128h4v-3.128c-.6635991.081643-1.3314073.1243827-2 .128z"/><path id="Shape" d="m25.447 53.342-2.934-1.467c-2.136-1.068-4.359-3.281-4.513-5.815v-3.06h-4v3c-.154 2.594-2.377 4.807-4.513 5.875l-2.934 1.467c-.33872941.1692635-.55279778.5153343-.553.894v.764c0 .5522847.44771525 1 1 1h18c.5522847 0 1-.4477153 1-1v-.764c-.0002022-.3786657-.2142706-.7247365-.553-.894zm-7.447-.342h-4c-.5522847 0-1-.4477153-1-1s.4477153-1 1-1h4c.5522847 0 1 .4477153 1 1s-.4477153 1-1 1z"/><path id="Shape" d="m10 40c0 .5522847.4477153 1 1 1h10c.5522847 0 1-.4477153 1-1s-.4477153-1-1-1h-10c-.5522847 0-1 .4477153-1 1z"/><path id="Shape" d="m10.937 20c-1.592 0-2.937.916-2.937 2s1.345 2 2.937 2c1.472581-.1103674 2.8342237-.8239362 3.763-1.972-.9513599-1.1292426-2.2966798-1.8542781-3.763-2.028z"/><path id="Shape" d="m21.062 24c1.593 0 2.938-.916 2.938-2s-1.345-2-2.938-2c-1.465137.1733515-2.8094219.8976923-3.76 2.026.93054 1.1446322 2.2894081 1.858038 3.76 1.974z"/><path id="Shape" d="m22 2h9v-1c0-.55228475-.4477153-1-1-1h-28c-.55228475 0-1 .44771525-1 1v1h9c.5522847 0 1 .44771525 1 1s-.4477153 1-1 1h-9v12.565c-.08671159 8.1010995 6.1613171 14.8632176 14.244 15.416 4.103015.2024483 8.1098227-1.2849203 11.0869171-4.1155785 2.9770945-2.8306583 4.6644993-6.7574175 4.6690829-10.8654215v-13h-9c-.5522847 0-1-.44771525-1-1s.4477153-1 1-1zm-18 11c-.55228475 0-1-.4477153-1-1s.44771525-1 1-1 1 .4477153 1 1-.44771525 1-1 1zm0-5c-.55228475 0-1-.44771525-1-1s.44771525-1 1-1 1 .44771525 1 1-.44771525 1-1 1zm24-2c.5522847 0 1 .44771525 1 1s-.4477153 1-1 1-1-.44771525-1-1 .4477153-1 1-1zm0 5c.5522847 0 1 .4477153 1 1s-.4477153 1-1 1-1-.4477153-1-1 .4477153-1 1-1zm-6 1c.5522847 0 1 .4477153 1 1v2c0 .5522847-.4477153 1-1 1s-1-.4477153-1-1h-4v4.6c1.1387484-.9696231 2.567889-1.5325539 4.062-1.6 2.723 0 4.938 1.794 4.938 4s-2.215 4-4.938 4c-1.9482394-.0913051-3.7755638-.9710343-5.062-2.437-1.2867449 1.4661157-3.1144367 2.345848-5.063 2.437-2.722 0-4.937-1.794-4.937-4s2.215-4 4.937-4c1.4944582.0672268 2.9239845.6301709 4.063 1.6v-4.6h-4c0 .5522847-.4477153 1-1 1-.55228475 0-1-.4477153-1-1v-2c0-.5522847.44771525-1 1-1 .5522847 0 1 .4477153 1 1h4v-4h-2c0 .55228475-.4477153 1-1 1s-1-.44771525-1-1v-2c0-.55228475.4477153-1 1-1s1 .44771525 1 1h2v-2c-.5522847 0-1-.44771525-1-1s.4477153-1 1-1h2c.5522847 0 1 .44771525 1 1s-.4477153 1-1 1v2h2c0-.55228475.4477153-1 1-1s1 .44771525 1 1v2c0 .55228475-.4477153 1-1 1s-1-.44771525-1-1h-2v4h4c0-.5522847.4477153-1 1-1z"/></g></g></svg>