<svg id="Capa_1" enable-background="new 0 0 512 512" height="512" viewBox="0 0 512 512" width="512" xmlns="http://www.w3.org/2000/svg"><g><circle cx="256" cy="256" fill="#6b5675" r="248.5"/><circle cx="256" cy="256" fill="#f0311a" r="218.5"/><path d="m202.781 329.25 29.723 91.478c3.581 11.021-6.164 21.802-17.478 19.294-51.622-11.441-95.284-44.043-121.412-88.242-5.883-9.953 1.415-22.53 12.976-22.53z" fill="#ffecb5"/><path d="m418.386 351.779c-26.128 44.2-69.79 76.801-121.412 88.242-2.272.504-4.478.464-6.528.001l111.641-110.772h3.323c11.561 0 18.859 12.577 12.976 22.529z" fill="#ffd98c"/><path d="m290.446 440.022c-8.16-1.841-13.812-10.487-10.95-19.295l29.723-91.478h92.868c-19.709 55.525-61.147 97.464-111.641 110.773z" fill="#ffecb5"/><path d="m443.678 273.704c-1.084 11.621-14.323 17.704-23.765 10.844l-6.658-4.837-38.429-148.442c5.656-6.43 16.236-7.097 22.48-.031 29.37 33.238 47.194 76.919 47.194 124.762 0 5.97-.278 11.876-.822 17.704z" fill="#ffd98c"/><path d="m413.255 279.711-71.145-51.69 29.714-91.449c.667-2.055 1.706-3.83 3.002-5.303 24.685 33.236 39.674 76.899 39.674 124.731 0 8.031-.425 15.944-1.245 23.711z" fill="#ffecb5"/><path d="m330.884 82.963c5.711 2.475 8.852 7.746 9.107 13.165l-83.99-28.628c26.609 0 51.93 5.515 74.883 15.463z" fill="#ffd98c"/><g fill="#ffecb5"><path d="m333.835 108.908-77.835 56.551-77.835-56.551c-9.435-6.855-7.749-21.307 2.952-25.945 22.952-9.948 48.273-15.463 74.883-15.463 30.852 0 59.638 10.494 83.991 28.628.223 4.735-1.756 9.584-6.156 12.78z"/><path d="m169.89 228.021-77.803 56.527c-9.442 6.86-22.681.777-23.765-10.844-.544-5.828-.822-11.734-.822-17.704 0-47.843 17.824-91.523 47.194-124.762 7.674-8.685 21.9-5.688 25.482 5.335z"/><path d="m318.966 299.25 13.397-41.229 56.746 41.229z"/><path d="m287.423 299.25h-62.846l-19.421-59.77 50.844-36.94 50.843 36.94z"/><path d="m234.324 329.25h43.351l-21.675 66.71z"/><path d="m179.637 258.021 13.396 41.229h-70.142z"/><path d="m230.481 184-35.072 25.481-21.676-66.711z"/><path d="m281.519 184 56.748-41.23-21.676 66.711z"/></g><path d="m293.633 447.892c1.642 0 3.305-.18 4.964-.548 52.663-11.672 98.678-45.113 126.245-91.748 4.132-6.989 4.188-15.385.152-22.46-4.067-7.13-11.389-11.387-19.585-11.387h-96.19c-3.249 0-6.129 2.092-7.133 5.183l-29.723 91.478c-2.527 7.779-.751 16.041 4.752 22.1 4.346 4.784 10.282 7.382 16.518 7.382zm-7.004-24.848 28.039-86.295h90.741c2.741 0 5.191 1.428 6.557 3.819.64 1.122 1.918 4.089-.036 7.394-25.463 43.074-67.954 73.959-116.579 84.736-3.811.841-6.255-1.31-7.132-2.275-.883-.971-2.806-3.636-1.59-7.379z"/><path d="m87.007 333.135c-4.037 7.075-3.98 15.471.151 22.46 27.567 46.635 73.582 80.076 126.245 91.748 1.66.368 3.322.548 4.964.548 6.234 0 12.173-2.598 16.518-7.381 5.503-6.059 7.279-14.321 4.752-22.1l-29.723-91.478c-1.004-3.09-3.884-5.183-7.133-5.183h-96.19c-8.195.001-15.517 4.257-19.584 11.386zm138.364 89.909c1.216 3.743-.707 6.408-1.59 7.38-.877.965-3.33 3.116-7.132 2.274-48.625-10.776-91.116-41.662-116.579-84.736-1.953-3.306-.676-6.272-.035-7.395 1.364-2.391 3.815-3.819 6.556-3.819h90.741z"/><path d="m437.962 292.917c7.49-3.388 12.419-10.31 13.185-18.517.566-6.08.854-12.271.854-18.4 0-47.842-17.428-93.914-49.074-129.729-5.398-6.11-13.395-8.769-21.39-7.107-8.02 1.665-14.316 7.306-16.845 15.09l-29.714 91.449c-1.004 3.09.096 6.476 2.725 8.386l77.803 56.527c3.946 2.867 8.525 4.33 13.157 4.33 3.134 0 6.294-.67 9.299-2.029zm-87.035-67.76 28.03-86.268c1.217-3.745 4.342-4.771 5.629-5.038 1.277-.264 4.521-.566 7.1 2.353 29.221 33.07 45.314 75.615 45.314 119.796 0 5.667-.266 11.389-.789 17.007-.372 3.994-3.223 5.696-4.431 6.243-1.187.536-4.288 1.535-7.459-.77z"/><path d="m333.866 76.082c-24.621-10.671-50.819-16.082-77.866-16.082s-53.245 5.411-77.866 16.082c-7.559 3.275-12.608 10.106-13.508 18.271-.893 8.111 2.52 15.82 9.13 20.623l77.836 56.551c1.314.955 2.861 1.432 4.408 1.432s3.094-.478 4.408-1.432l77.835-56.551c6.61-4.802 10.023-12.511 9.13-20.622-.898-8.166-5.948-14.996-13.507-18.272zm-4.439 26.758-73.427 53.348-73.428-53.348c-3.167-2.302-3.179-5.554-3.036-6.845.146-1.318.88-4.555 4.563-6.151 22.727-9.849 46.918-14.844 71.901-14.844s49.174 4.995 71.901 14.845c3.682 1.596 4.417 4.833 4.562 6.151.142 1.291.131 4.543-3.036 6.844z"/><path d="m130.464 119.165c-7.993-1.658-15.99.997-21.39 7.106-31.646 35.815-49.074 81.887-49.074 129.729 0 6.129.287 12.32.854 18.401.766 8.207 5.694 15.128 13.185 18.516 3.006 1.359 6.164 2.029 9.3 2.029 4.632 0 9.211-1.463 13.157-4.33l77.803-56.527c2.629-1.91 3.729-5.295 2.725-8.386l-29.714-91.449c-2.53-7.782-8.827-13.423-16.846-15.089zm-42.785 159.315c-3.173 2.304-6.273 1.306-7.459.77-1.208-.546-4.059-2.249-4.431-6.242-.523-5.619-.789-11.341-.789-17.008 0-44.181 16.093-86.726 45.314-119.796 1.813-2.053 3.957-2.513 5.514-2.513.655 0 1.207.082 1.586.161 1.287.267 4.412 1.293 5.629 5.038l28.03 86.267z"/><path d="m325.229 255.704-13.396 41.229c-.742 2.283-.346 4.784 1.065 6.726s3.667 3.092 6.067 3.092h70.143c3.249 0 6.129-2.092 7.133-5.183 1.004-3.09-.096-6.475-2.725-8.385l-56.747-41.229c-1.941-1.41-4.442-1.807-6.726-1.065-2.281.741-4.071 2.531-4.814 4.815zm11.077 14.452 29.721 21.593h-36.737z"/><path d="m251.592 196.472-50.844 36.94c-2.629 1.91-3.729 5.295-2.725 8.385l19.42 59.77c1.004 3.09 3.884 5.183 7.133 5.183h62.847c3.249 0 6.129-2.092 7.133-5.182l19.421-59.77c1.004-3.09-.096-6.476-2.725-8.386l-50.844-36.94c-2.629-1.909-6.187-1.909-8.816 0zm30.382 95.278h-51.948l-16.053-49.405 42.027-30.534 42.027 30.534z"/><path d="m256 403.46c3.249 0 6.129-2.092 7.133-5.182l21.676-66.71c.742-2.284.346-4.784-1.065-6.726s-3.667-3.092-6.067-3.092h-43.352c-2.4 0-4.656 1.149-6.067 3.092-1.411 1.942-1.808 4.442-1.065 6.726l21.676 66.71c1.002 3.09 3.882 5.182 7.131 5.182zm11.353-66.71-11.353 34.939-11.353-34.94h22.706z"/><path d="m118.482 293.182c-2.629 1.91-3.729 5.295-2.725 8.385s3.884 5.182 7.133 5.182h70.143c2.4 0 4.656-1.149 6.067-3.092s1.808-4.443 1.065-6.726l-13.396-41.229c-.742-2.283-2.532-4.073-4.815-4.815-2.284-.744-4.785-.345-6.726 1.065zm64.228-1.432h-36.736l29.72-21.593z"/><path d="m234.889 177.932-56.747-41.229c-2.629-1.91-6.188-1.91-8.816 0-2.629 1.91-3.729 5.295-2.725 8.385l21.676 66.71c.742 2.283 2.532 4.073 4.815 4.815.758.247 1.539.367 2.316.367 1.565 0 3.112-.49 4.409-1.433l35.071-25.481c1.942-1.411 3.092-3.667 3.092-6.067s-1.149-4.656-3.091-6.067zm-35.536 19.413-11.354-34.939 29.722 21.594z"/><path d="m342.675 136.703c-2.629-1.91-6.188-1.91-8.816 0l-56.747 41.229c-1.942 1.411-3.092 3.667-3.092 6.068s1.149 4.656 3.092 6.067l35.071 25.481c1.298.943 2.844 1.433 4.409 1.433.777 0 1.559-.121 2.316-.367 2.283-.742 4.073-2.532 4.815-4.815l21.676-66.71c1.004-3.091-.095-6.476-2.724-8.386zm-30.028 60.642-18.368-13.345 29.722-21.594z"/><path d="m437.02 74.98c-48.352-48.351-112.64-74.98-181.02-74.98s-132.668 26.629-181.02 74.98c-48.351 48.353-74.98 112.64-74.98 181.02s26.629 132.667 74.98 181.02c48.352 48.351 112.64 74.98 181.02 74.98s132.668-26.629 181.02-74.98c48.351-48.353 74.98-112.64 74.98-181.02s-26.629-132.667-74.98-181.02zm-181.02 422.02c-132.888 0-241-108.112-241-241s108.112-241 241-241 241 108.112 241 241-108.112 241-241 241z"/><path d="m415.806 96.194c-42.686-42.686-99.44-66.194-159.806-66.194-45.957 0-90.188 13.716-127.912 39.665-36.835 25.337-65.109 60.57-81.767 101.891-1.549 3.842.311 8.211 4.152 9.76 3.839 1.548 8.211-.31 9.76-4.152 32.365-80.287 109.208-132.164 195.767-132.164 116.346 0 211 94.654 211 211s-94.654 211-211 211-211-94.654-211-211c0-17.322 2.116-34.579 6.289-51.29 1.004-4.019-1.44-8.09-5.459-9.094-4.021-1.006-8.091 1.44-9.094 5.459-4.469 17.9-6.736 36.379-6.736 54.925 0 60.367 23.508 117.12 66.194 159.806s99.44 66.194 159.806 66.194 117.12-23.508 159.806-66.194 66.194-99.439 66.194-159.806-23.508-117.12-66.194-159.806z"/></g></svg>